<svg width="78" height="21" viewBox="0 0 78 21" fill="none" xmlns="http://www.w3.org/2000/svg">
<circle cx="10.1684" cy="10.3338" r="10.1669" fill="#0F172A"/>
<path d="M6.24901 5.61512L5.10523 5.41687V4.47135H7.33178C7.66729 4.47135 8.11972 4.45101 8.68907 4.41034C8.82123 4.40018 9.01949 4.39001 9.28383 4.37984C9.55834 4.36968 9.80234 4.36459 10.0158 4.36459C11.8866 4.36459 13.2845 4.83227 14.2097 5.76763C15.1451 6.70298 15.6127 8.02976 15.6127 9.74797C15.6127 10.9477 15.3789 12.0152 14.9112 12.9505C14.4537 13.8859 13.7979 14.6179 12.9439 15.1466C12.0899 15.6651 11.0935 15.9244 9.95485 15.9244C9.66001 15.9244 9.19741 15.904 8.56706 15.8634C7.97738 15.8227 7.57579 15.8024 7.36228 15.8024H5.04423V14.8873L6.24901 14.7348V5.61512ZM8.46031 14.7806C8.80598 14.8721 9.28891 14.9178 9.90909 14.9178C10.9258 14.8975 11.7239 14.4908 12.3034 13.6978C12.8829 12.8946 13.1727 11.6949 13.1727 10.0987C13.1727 8.58386 12.888 7.41467 12.3187 6.59115C11.7493 5.75746 10.8648 5.34062 9.66509 5.34062C9.41092 5.34062 9.16691 5.35587 8.93307 5.38637C8.7094 5.41687 8.55181 5.4372 8.46031 5.44737V14.7806Z" fill="white"/>
<path d="M27.2182 5.61512L26.0745 5.41687V4.47135H28.301C28.6365 4.47135 29.089 4.45101 29.6583 4.41034C29.7905 4.40018 29.9887 4.39001 30.2531 4.37984C30.5276 4.36968 30.7716 4.36459 30.9851 4.36459C32.8558 4.36459 34.2537 4.83227 35.1789 5.76763C36.1143 6.70298 36.582 8.02976 36.582 9.74797C36.582 10.9477 36.3481 12.0152 35.8805 12.9505C35.4229 13.8859 34.7672 14.6179 33.9132 15.1466C33.0591 15.6651 32.0628 15.9244 30.9241 15.9244C30.6292 15.9244 30.1666 15.904 29.5363 15.8634C28.9466 15.8227 28.545 15.8024 28.3315 15.8024H26.0135V14.8873L27.2182 14.7348V5.61512ZM29.4295 14.7806C29.7752 14.8721 30.2582 14.9178 30.8783 14.9178C31.895 14.8975 32.6931 14.4908 33.2726 13.6978C33.8522 12.8946 34.1419 11.6949 34.1419 10.0987C34.1419 8.58386 33.8572 7.41467 33.2879 6.59115C32.7185 5.75746 31.834 5.34062 30.6343 5.34062C30.3802 5.34062 30.1361 5.35587 29.9023 5.38637C29.6786 5.41687 29.521 5.4372 29.4295 5.44737V14.7806ZM37.8286 4.65435L36.7 4.4561V3.63258L39.5214 3.29707H39.5519L39.9636 3.58682V14.7653L41.0769 14.8873V15.8024H36.761V14.8873L37.8286 14.7501V4.65435ZM43.1791 5.93538C42.8131 5.93538 42.5233 5.82863 42.3098 5.61512C42.0963 5.40162 41.9895 5.12711 41.9895 4.7916C41.9895 4.40526 42.1115 4.085 42.3555 3.83083C42.5995 3.57666 42.9249 3.44957 43.3316 3.44957C43.7382 3.44957 44.0483 3.56141 44.2618 3.78508C44.4753 3.99858 44.5821 4.26801 44.5821 4.59335C44.5821 5.00002 44.4601 5.32537 44.2161 5.56937C43.9721 5.81338 43.6315 5.93538 43.1943 5.93538H43.1791ZM42.3708 8.77195L41.288 8.48219V7.46042L44.0788 7.12491H44.1093L44.5363 7.42992V14.7653L45.5581 14.8873V15.8024H41.3033V14.8873L42.3708 14.7501V8.77195ZM45.111 7.32316H49.1371V8.20769L48.1305 8.40594L49.5183 12.554L50.0063 14.1706L50.4181 12.5998L51.7754 8.40594L50.8146 8.20769V7.32316H54.1697V8.20769L53.3767 8.40594L50.5401 15.9244H48.7711L45.7362 8.40594L45.111 8.20769V7.32316ZM57.6817 15.9701C56.3397 15.9701 55.3382 15.5787 54.6774 14.7958C54.0267 14.0028 53.7013 12.9251 53.7013 11.5628C53.7013 10.6477 53.8691 9.85472 54.2046 9.18371C54.5503 8.51269 55.0332 7.99926 55.6534 7.64342C56.2736 7.28758 56.9903 7.10966 57.8037 7.10966C58.8204 7.10966 59.6032 7.37908 60.1522 7.91793C60.7013 8.44661 60.9859 9.20404 61.0063 10.1902C61.0063 10.8612 60.9656 11.3594 60.8843 11.6848H55.9279C55.9686 12.61 56.1871 13.3318 56.5837 13.8503C56.9802 14.3587 57.5444 14.6128 58.2764 14.6128C58.673 14.6128 59.0796 14.5468 59.4965 14.4146C59.9235 14.2824 60.259 14.1248 60.503 13.9418L60.8843 14.7806C60.6098 15.0754 60.1624 15.3499 59.5422 15.6041C58.9322 15.8481 58.312 15.9701 57.6817 15.9701ZM58.8712 10.7697C58.8915 10.4851 58.9017 10.2665 58.9017 10.114C58.9017 8.76178 58.4493 8.08568 57.5444 8.08568C57.0463 8.08568 56.6599 8.28394 56.3854 8.68045C56.1109 9.07696 55.9584 9.77339 55.9279 10.7697H58.8712ZM61.4608 14.9026L62.4673 14.7806V8.77195L61.4913 8.49744V7.44517L63.8551 7.12491H63.9009L64.2821 7.42992V7.76543L64.2364 9.0007H64.2821C64.3533 8.79737 64.521 8.54828 64.7854 8.25344C65.0497 7.94843 65.3801 7.68409 65.7766 7.46042C66.1833 7.22658 66.6205 7.10966 67.0882 7.10966C67.3119 7.10966 67.505 7.14016 67.6677 7.20116V9.48872C67.3627 9.27521 66.9916 9.16846 66.5544 9.16846C65.8122 9.16846 65.1666 9.36671 64.6176 9.76322V14.7653L66.3867 14.9026V15.8024H61.4608V14.9026ZM71.064 15.9701C70.4337 15.9701 69.8694 15.8227 69.3712 15.5279C68.873 15.2229 68.4765 14.7552 68.1817 14.1248C67.8868 13.4945 67.7394 12.7065 67.7394 11.761C67.7394 10.907 67.9123 10.1292 68.2579 9.42771C68.6138 8.71603 69.1323 8.15177 69.8135 7.73492C70.4947 7.31808 71.3131 7.10966 72.2688 7.10966C72.6551 7.10966 73.0211 7.15033 73.3668 7.23166V4.65435L71.8723 4.44084V3.60208L75.0138 3.29707H75.0596L75.4866 3.61733V14.8721H76.3101V15.7414C75.5781 15.8939 74.9732 15.9701 74.4953 15.9701C74.17 15.9701 73.9362 15.9142 73.7938 15.8024C73.6616 15.7007 73.5956 15.4923 73.5956 15.1771V14.7501C73.3312 15.1059 72.9703 15.4008 72.5128 15.6346C72.0553 15.8583 71.5723 15.9701 71.064 15.9701ZM71.857 14.7043C72.1925 14.7043 72.4874 14.6383 72.7415 14.5061C73.0059 14.3638 73.2143 14.196 73.3668 14.0028V8.45169C73.2956 8.35002 73.1431 8.2636 72.9093 8.19244C72.6856 8.12127 72.4416 8.08568 72.1773 8.08568C71.5266 8.08568 71.003 8.37036 70.6065 8.9397C70.2201 9.49888 70.027 10.3987 70.027 11.639C70.027 12.676 70.1947 13.4487 70.5302 13.9571C70.8657 14.4553 71.308 14.7043 71.857 14.7043Z" fill="#0F172A"/>
</svg>
